# xmcd
#
# Track frame offsets: 
#        150
#        14290
#        35598
#        57104
#
# Disc length: 1016 seconds
#
# Revision: 0
# Processed by: cddbd v1.5.2PL0 Copyright (c) Steve Scherf et al.
# Submitted via: ExactAudioCopyFreeDBPlugin 1.0
#
DISCID=2903f604
DTITLE=Wicked Charmer - ...lonely - but safe...
DYEAR=1995
DGENRE=Progressive Rock
TTITLE0=No More
TTITLE1=Take!
TTITLE2=Dream With Open Eyes
TTITLE3=Heart Of A Lion
EXTD=
EXTT0=
EXTT1=
EXTT2=
EXTT3=
PLAYORDER=
